<svg width="49" height="46" viewBox="0 0 49 46" fill="none" xmlns="http://www.w3.org/2000/svg">
<rect x="0.539551" width="47.9177" height="46" rx="23" fill="#5C8FDB"/>
<path d="M21.2175 26.96V25.296C21.2175 22.992 22.4015 22.288 24.7375 21.072C26.5935 20.112 27.5215 19.504 27.5215 17.904C27.5215 15.984 26.1455 14.576 23.3295 14.576C21.0895 14.576 19.3295 15.504 19.0415 18.576H15.3935C15.6815 13.648 19.0735 11.216 23.4575 11.216C27.9055 11.216 31.1695 13.68 31.1695 17.808C31.1695 20.944 29.2495 22.192 26.8175 23.472C25.5055 24.176 24.7695 24.72 24.7695 25.968V26.96H21.2175ZM23.0095 34.384C21.6335 34.384 20.6095 33.456 20.6095 32.112C20.6095 30.768 21.6335 29.872 23.0095 29.872C24.3855 29.872 25.4415 30.768 25.4415 32.112C25.4415 33.456 24.3855 34.384 23.0095 34.384Z" fill="white"/>
</svg>
