<svg width="82" height="82" viewBox="0 0 82 82" fill="none" xmlns="http://www.w3.org/2000/svg">
  <path d="M49.5579 41.3187C49.2333 41.546 49.0736 41.9435 49.1506 42.3321C49.2276 42.7208 49.5268 43.0273 49.9135 43.1137C52.2583 43.6377 55.1252 43.9826 58.1022 44.3407C59.3489 44.4907 60.6148 44.643 61.8698 44.8117C66.1928 45.393 70.4516 46.1736 73.8095 47.6884C77.141 49.1913 79.4518 51.3509 80.1538 54.6549C80.8713 58.0324 79.9679 62.8548 76.2052 69.7956C73.0229 75.6658 69.6652 77.9063 66.5305 78.148C63.3366 78.3943 59.9659 76.6074 56.6966 73.4741C50.1728 67.2216 44.7594 56.2769 43.047 49.5775C42.9313 49.1246 42.5171 48.8123 42.0497 48.8256C41.5824 48.8389 41.1867 49.1742 41.0968 49.633C40.4131 53.125 39.257 57.8106 37.5671 62.4805C35.8729 67.1626 33.6654 71.7631 30.9064 75.1344C28.1487 78.5041 24.9504 80.5219 21.2442 80.3739C17.5078 80.2247 12.9384 77.8666 7.47315 71.7225C3.1115 65.4978 1.94003 60.7644 2.57719 57.1768C3.21163 53.6045 5.69019 50.896 9.26233 48.8314C16.4638 44.6691 27.5358 43.4627 34.0743 43.1102C34.5583 43.0841 34.9539 42.7146 35.013 42.2335C35.0721 41.7525 34.7776 41.2983 34.3144 41.1558C32.8333 40.7004 31.2392 40.2429 29.5741 39.7651C26.8517 38.9839 23.9397 38.1483 21.0227 37.1782C16.3461 35.6231 11.8471 33.7789 8.48824 31.4159C5.13378 29.0559 3.05819 26.2842 2.90162 22.8811C2.74302 19.434 4.53335 15.0276 9.68093 9.37586C13.8702 4.77621 17.4355 3.38806 20.4455 3.74075C23.508 4.09958 26.3571 6.2944 29.007 9.69464C33.4911 15.4487 36.9812 24.0801 39.7076 30.8229C40.2072 32.0585 40.6812 33.2308 41.1309 34.3102C41.3144 34.7505 41.7832 35 42.2509 34.9061C42.7185 34.8122 43.0547 34.4011 43.054 33.9241C43.0427 26.4941 45.0357 15.6063 49.6072 8.50634C51.8836 4.97075 54.7235 2.48839 58.1652 1.71608C61.5913 0.947266 65.8567 1.81956 71.112 5.5134C76.3735 9.2116 78.1529 12.6624 78.0693 15.7699C77.9837 18.9513 75.9478 22.1536 72.6879 25.3221C69.4518 28.4674 65.1717 31.4243 60.926 34.1267C59.3731 35.115 57.8156 36.0747 56.3206 36.9959C53.7748 38.5645 51.4102 40.0215 49.5579 41.3187Z" stroke="#181824" stroke-width="2" stroke-linejoin="round"></path>
</svg>