<svg width="82" height="81" viewBox="0 0 82 81" fill="none" xmlns="http://www.w3.org/2000/svg">
  <path fill-rule="evenodd" clip-rule="evenodd" d="M10.0188 68.4714C9.9452 68.8154 10.0436 69.1752 10.2796 69.4245C10.5155 69.6739 10.8559 69.7779 11.1813 69.7001L33.4224 64.3806L33.4452 64.4046L33.4812 64.3665L33.738 64.3051L33.7013 64.1339L67.0852 28.8496C67.4648 28.4484 67.4648 27.798 67.0852 27.3968L50.0297 9.3704C49.6502 8.96923 49.0348 8.96923 48.6552 9.3704L15.2624 44.6641L15.1233 44.6309L15.0734 44.8638L15.0151 44.9255L15.0519 44.9644L10.0188 68.4714ZM16.8454 45.8966L12.2548 67.3368L32.504 62.4938L65.0234 28.1232L49.3425 11.5496L16.8454 45.8966Z" fill="#181824"></path>
  <path d="M63.2837 31.4292L46.2282 13.4028L56.068 3.00293C57.2067 1.7994 59.0529 1.79939 60.1916 3.00293L73.1235 16.6709C74.2622 17.8745 74.2622 19.8258 73.1235 21.0293L63.2837 31.4292Z" fill="#F5F5F5" stroke="#181824" stroke-width="2" stroke-linejoin="round"></path>
  <path d="M5.11035 80.0059H81.0277" stroke="#181824" stroke-width="2" stroke-linecap="round" stroke-linejoin="round"></path>
</svg>