<svg width="84" height="83" viewBox="0 0 84 83" fill="none" xmlns="http://www.w3.org/2000/svg">
<path d="M20.3561 21.2301C20.4248 23.9489 21.4307 25.7141 22.8409 26.7677C24.204 27.786 25.81 28.0387 26.9431 28.0387C27.004 28.0387 27.0657 28.0375 27.1279 28.035C28.2568 27.99 29.7337 27.5313 30.9579 26.4567C32.2117 25.3561 33.1515 23.6513 33.2195 21.233C33.3079 18.0901 31.8623 16.2403 30.3022 15.2231C29.5457 14.7299 28.7812 14.4423 28.1889 14.2772C27.62 14.1186 27.1452 14.0557 26.943 14.0557H26.9428C26.8156 14.0557 25.1728 14.0557 23.5509 14.9482C22.7233 15.4036 21.8889 16.0983 21.2777 17.146C20.6659 18.195 20.3134 19.537 20.3561 21.2301Z" stroke="#181824" stroke-width="2" stroke-linecap="round"/>
<path d="M26.3999 50.1687C39.917 50.1687 50.8662 39.1572 50.8662 25.5844C50.8662 12.0115 39.917 1 26.3999 1C12.8828 1 1.93359 12.0115 1.93359 25.5844C1.93359 39.1572 12.8828 50.1687 26.3999 50.1687Z" stroke="#181824" stroke-width="2"/>
<path d="M63.6439 52.1847C63.5752 54.9035 62.5693 56.6687 61.1591 57.7222C59.796 58.7406 58.19 58.9933 57.0569 58.9933C56.996 58.9933 56.9343 58.992 56.8721 58.9896C55.7432 58.9446 54.2663 58.4859 53.0421 57.4112C51.7883 56.3106 50.8485 54.6059 50.7805 52.1876C50.6921 49.0447 52.1377 47.1949 53.6978 46.1777C54.4543 45.6845 55.2188 45.3969 55.8111 45.2318C56.38 45.0732 56.8548 45.0103 57.057 45.0103H57.0572C57.1844 45.0103 58.8272 45.0103 60.4491 45.9028C61.2767 46.3582 62.1111 47.0529 62.7223 48.1006C63.3341 49.1495 63.6866 50.4916 63.6439 52.1847Z" stroke="#181824" stroke-width="2" stroke-linecap="round"/>
<path fill-rule="evenodd" clip-rule="evenodd" d="M33.5621 48.0711C32.6368 50.7219 32.1338 53.5718 32.1338 56.5389C32.1338 70.6593 43.526 82.1233 57.6001 82.1233C71.6742 82.1233 83.0664 70.6593 83.0664 56.5389C83.0664 42.4186 71.6742 30.9546 57.6001 30.9546C54.5488 30.9546 51.6236 31.4934 48.9132 32.4813C48.6491 33.3506 48.3364 34.1985 47.9783 35.0219C50.9144 33.6936 54.1714 32.9546 57.6001 32.9546C70.5602 32.9546 81.0664 43.5137 81.0664 56.5389C81.0664 69.5642 70.5602 80.1233 57.6001 80.1233C44.64 80.1233 34.1338 69.5642 34.1338 56.5389C34.1338 53.1832 34.8311 49.9911 36.0882 47.1012C35.27 47.4713 34.4269 47.7957 33.5621 48.0711Z" fill="#181824"/>
</svg>
